<svg xmlns="http://www.w3.org/2000/svg" viewBox="0 0 256 256" class="w-full h-full" width="256" height="256"><defs><radialGradient id="bronze-bg-3" cx="0.3" cy="0.3" r="0.8"><stop offset="0%" stop-color="#FFCCBC"/><stop offset="50%" stop-color="#FF8A65"/><stop offset="100%" stop-color="#D84315"/></radialGradient></defs><circle cx="128" cy="128" r="110" fill="url(#bronze-bg-3)" stroke="#BF360C" stroke-width="3"/><path d="M80 100 Q70 110 75 120 Q80 130 90 125 Q100 120 95 110 Q90 100 80 100" fill="#8BC34A" stroke="#4CAF50" stroke-width="1"/><path d="M75 120 Q65 130 70 140 Q75 150 85 145 Q95 140 90 130 Q85 120 75 120" fill="#8BC34A" stroke="#4CAF50" stroke-width="1"/><path d="M85 145 Q75 155 80 165 Q85 175 95 170 Q105 165 100 155 Q95 145 85 145" fill="#8BC34A" stroke="#4CAF50" stroke-width="1"/><path d="M176 100 Q186 110 181 120 Q176 130 166 125 Q156 120 161 110 Q166 100 176 100" fill="#8BC34A" stroke="#4CAF50" stroke-width="1"/><path d="M181 120 Q191 130 186 140 Q181 150 171 145 Q161 140 166 130 Q171 120 181 120" fill="#8BC34A" stroke="#4CAF50" stroke-width="1"/><path d="M171 145 Q181 155 176 165 Q171 175 161 170 Q151 165 156 155 Q161 145 171 145" fill="#8BC34A" stroke="#4CAF50" stroke-width="1"/><circle cx="128" cy="128" r="35" fill="#A1887F" stroke="#8D6E63" stroke-width="2"/><circle cx="128" cy="128" r="25" fill="#BCAAA4" stroke="#A1887F" stroke-width="1"/><line x1="120" y1="115" x2="120" y2="141" stroke="#5D4037" stroke-width="3"/><line x1="128" y1="115" x2="128" y2="141" stroke="#5D4037" stroke-width="3"/><line x1="136" y1="115" x2="136" y2="141" stroke="#5D4037" stroke-width="3"/></svg>