<svg xmlns="http://www.w3.org/2000/svg" viewBox="0 0 256 256" class="w-full h-full" width="256" height="256"><defs><linearGradient id="holo-bg-14" x1="0%" y1="0%" x2="100%" y2="100%"><stop offset="0%" stop-color="#FF6B6B"/><stop offset="16%" stop-color="#4ECDC4"/><stop offset="33%" stop-color="#45B7D1"/><stop offset="50%" stop-color="#96CEB4"/><stop offset="66%" stop-color="#FFEAA7"/><stop offset="83%" stop-color="#DDA0DD"/><stop offset="100%" stop-color="#98D8C8"/></linearGradient><filter id="holographic-14"><feGaussianBlur stdDeviation="1"/><feColorMatrix values="1.5 0 0 0 0  0 1.5 0 0 0  0 0 1.5 0 0  0 0 0 0.8 0"/></filter></defs><circle cx="128" cy="128" r="110" fill="url(#holo-bg-14)" stroke="#9C27B0" stroke-width="3" filter="url(#holographic-14)"/><path d="M50 80 Q100 85 150 80 Q200 75 250 80" stroke="#FFFFFF" stroke-width="3" opacity="0.6" fill="none"/><path d="M40 120 Q90 125 140 120 Q190 115 240 120" stroke="#FF69B4" stroke-width="2" opacity="0.5" fill="none"/><path d="M45 160 Q95 165 145 160 Q195 155 245 160" stroke="#00FFFF" stroke-width="3" opacity="0.6" fill="none"/><path d="M35 200 Q85 205 135 200 Q185 195 235 200" stroke="#FFFF00" stroke-width="2" opacity="0.5" fill="none"/><circle cx="90" cy="90" r="4" fill="#FFFFFF" opacity="0.9"><animate attributeName="opacity" values="0.3;1;0.3" dur="1.5s" repeatCount="indefinite"/></circle><circle cx="166" cy="110" r="3" fill="#FF69B4" opacity="0.8"><animate attributeName="opacity" values="0.5;1;0.5" dur="2s" repeatCount="indefinite"/></circle><circle cx="110" cy="166" r="4" fill="#00FFFF" opacity="0.9"><animate attributeName="opacity" values="0.2;0.9;0.2" dur="1.8s" repeatCount="indefinite"/></circle><circle cx="170" cy="150" r="3" fill="#FFFF00" opacity="0.7"><animate attributeName="opacity" values="0.4;1;0.4" dur="2.2s" repeatCount="indefinite"/></circle><circle cx="128" cy="128" r="30" fill="none" stroke="#FFFFFF" stroke-width="2" opacity="0.4"/><circle cx="128" cy="128" r="20" fill="none" stroke="#FF69B4" stroke-width="2" opacity="0.4"/><circle cx="128" cy="128" r="10" fill="#FFFFFF" opacity="0.6"/><line x1="128" y1="98" x2="128" y2="88" stroke="#FFFFFF" stroke-width="2" opacity="0.7"/><line x1="158" y1="128" x2="168" y2="128" stroke="#FF69B4" stroke-width="2" opacity="0.7"/><line x1="128" y1="158" x2="128" y2="168" stroke="#00FFFF" stroke-width="2" opacity="0.7"/><line x1="98" y1="128" x2="88" y2="128" stroke="#FFFF00" stroke-width="2" opacity="0.7"/></svg>