<svg xmlns="http://www.w3.org/2000/svg" viewBox="0 0 256 256" class="w-full h-full" width="256" height="256"><defs><radialGradient id="gear-wheel-bg-43" cx="0.3" cy="0.3" r="0.8"><stop offset="0%" stop-color="#E0E0E0"/><stop offset="50%" stop-color="#BDBDBD"/><stop offset="100%" stop-color="#757575"/></radialGradient></defs><circle cx="128" cy="128" r="110" fill="url(#gear-wheel-bg-43)" stroke="#424242" stroke-width="3"/><g transform="translate(128,128)"><path d="M0 -70 L10 -80 L-10 -80 Z" fill="#616161"/><path d="M0 -70 L10 -80 L-10 -80 Z" fill="#616161" transform="rotate(22.5)"/><path d="M0 -70 L10 -80 L-10 -80 Z" fill="#616161" transform="rotate(45)"/><path d="M0 -70 L10 -80 L-10 -80 Z" fill="#616161" transform="rotate(67.5)"/><path d="M0 -70 L10 -80 L-10 -80 Z" fill="#616161" transform="rotate(90)"/><path d="M0 -70 L10 -80 L-10 -80 Z" fill="#616161" transform="rotate(112.5)"/><path d="M0 -70 L10 -80 L-10 -80 Z" fill="#616161" transform="rotate(135)"/><path d="M0 -70 L10 -80 L-10 -80 Z" fill="#616161" transform="rotate(157.5)"/><path d="M0 -70 L10 -80 L-10 -80 Z" fill="#616161" transform="rotate(180)"/><path d="M0 -70 L10 -80 L-10 -80 Z" fill="#616161" transform="rotate(202.5)"/><path d="M0 -70 L10 -80 L-10 -80 Z" fill="#616161" transform="rotate(225)"/><path d="M0 -70 L10 -80 L-10 -80 Z" fill="#616161" transform="rotate(247.5)"/><path d="M0 -70 L10 -80 L-10 -80 Z" fill="#616161" transform="rotate(270)"/><path d="M0 -70 L10 -80 L-10 -80 Z" fill="#616161" transform="rotate(292.5)"/><path d="M0 -70 L10 -80 L-10 -80 Z" fill="#616161" transform="rotate(315)"/><path d="M0 -70 L10 -80 L-10 -80 Z" fill="#616161" transform="rotate(337.5)"/><circle r="70" fill="#9E9E9E" stroke="#757575" stroke-width="2"/><circle r="50" fill="#BDBDBD" stroke="#9E9E9E" stroke-width="2"/><circle r="30" fill="#757575" stroke="#616161" stroke-width="2"/><circle r="15" fill="#424242"/><line x1="0" y1="-45" x2="0" y2="-20" stroke="#616161" stroke-width="4"/><line x1="0" y1="-45" x2="0" y2="-20" stroke="#616161" stroke-width="4" transform="rotate(45)"/><line x1="0" y1="-45" x2="0" y2="-20" stroke="#616161" stroke-width="4" transform="rotate(90)"/><line x1="0" y1="-45" x2="0" y2="-20" stroke="#616161" stroke-width="4" transform="rotate(135)"/><line x1="0" y1="-45" x2="0" y2="-20" stroke="#616161" stroke-width="4" transform="rotate(180)"/><line x1="0" y1="-45" x2="0" y2="-20" stroke="#616161" stroke-width="4" transform="rotate(225)"/><line x1="0" y1="-45" x2="0" y2="-20" stroke="#616161" stroke-width="4" transform="rotate(270)"/><line x1="0" y1="-45" x2="0" y2="-20" stroke="#616161" stroke-width="4" transform="rotate(315)"/><path d="M-40 -40 Q0 -50 40 -40" stroke="#E0E0E0" stroke-width="3" opacity="0.7"/><path d="M-30 0 Q0 -10 30 0" stroke="#E0E0E0" stroke-width="3" opacity="0.6"/><path d="M-40 40 Q0 30 40 40" stroke="#424242" stroke-width="2" opacity="0.5"/><circle r="8" fill="#9E9E9E"/></g></svg>