<svg xmlns="http://www.w3.org/2000/svg" viewBox="0 0 256 256" class="w-full h-full" width="256" height="256"><defs><radialGradient id="minimal-bg-44" cx="0.5" cy="0.5" r="0.6"><stop offset="0%" stop-color="#FAFAFA"/><stop offset="100%" stop-color="#F5F5F5"/></radialGradient></defs><circle cx="128" cy="128" r="110" fill="url(#minimal-bg-44)" stroke="#E0E0E0" stroke-width="3"/><g stroke="#616161" stroke-width="2" fill="none"><circle cx="128" cy="128" r="80"/><circle cx="128" cy="128" r="60"/><circle cx="128" cy="128" r="40"/><line x1="48" y1="128" x2="208" y2="128"/><line x1="128" y1="48" x2="128" y2="208"/><line x1="85" y1="85" x2="171" y2="171"/><line x1="171" y1="85" x2="85" y2="171"/><rect x="113" y="113" width="30" height="30" fill="none"/><line x1="98" y1="128" x2="118" y2="128" stroke-width="3"/><line x1="138" y1="128" x2="158" y2="128" stroke-width="3"/><line x1="128" y1="98" x2="128" y2="118" stroke-width="3"/><line x1="128" y1="138" x2="128" y2="158" stroke-width="3"/><line x1="95" y1="95" x2="105" y2="95" stroke-width="1"/><line x1="95" y1="95" x2="95" y2="105" stroke-width="1"/><line x1="161" y1="95" x2="151" y2="95" stroke-width="1"/><line x1="161" y1="95" x2="161" y2="105" stroke-width="1"/><line x1="95" y1="161" x2="105" y2="161" stroke-width="1"/><line x1="95" y1="161" x2="95" y2="151" stroke-width="1"/><line x1="161" y1="161" x2="151" y2="161" stroke-width="1"/><line x1="161" y1="161" x2="161" y2="151" stroke-width="1"/></g><circle cx="128" cy="128" r="5" fill="#9E9E9E"/><circle cx="128" cy="128" r="2" fill="#616161"/><circle cx="128" cy="128" r="25" fill="none" stroke="#BDBDBD" stroke-width="1" opacity="0.3"/><circle cx="128" cy="128" r="35" fill="none" stroke="#BDBDBD" stroke-width="1" opacity="0.2"/><circle cx="128" cy="128" r="50" fill="none" stroke="#BDBDBD" stroke-width="1" opacity="0.1"/></svg>