<svg xmlns="http://www.w3.org/2000/svg" viewBox="0 0 256 256" class="w-full h-full" width="256" height="256"><defs><radialGradient id="music-bg-50" cx="0.3" cy="0.3" r="0.8"><stop offset="0%" stop-color="#F5F5F5"/><stop offset="50%" stop-color="#E0E0E0"/><stop offset="100%" stop-color="#BDBDBD"/></radialGradient></defs><circle cx="128" cy="128" r="110" fill="url(#music-bg-50)" stroke="#757575" stroke-width="3"/><circle cx="115" cy="150" r="12" fill="#424242"/><rect x="125" y="100" width="4" height="50" fill="#424242"/><path d="M129 100 Q145 95 155 100 Q160 105 155 110 Q145 115 129 110 Z" fill="#424242"/><line x1="80" y1="120" x2="176" y2="120" stroke="#616161" stroke-width="2"/><line x1="80" y1="130" x2="176" y2="130" stroke="#616161" stroke-width="2"/><line x1="80" y1="140" x2="176" y2="140" stroke="#616161" stroke-width="2"/><line x1="80" y1="150" x2="176" y2="150" stroke="#616161" stroke-width="2"/><line x1="80" y1="160" x2="176" y2="160" stroke="#616161" stroke-width="2"/><circle cx="160" cy="135" r="8" fill="#616161"/><rect x="166" y="110" width="3" height="25" fill="#616161"/><path d="M90 115 Q85 110 90 105 Q95 100 100 105 Q105 110 100 115 Q95 120 90 115" fill="#757575"/><circle cx="140" cy="90" r="2" fill="#9E9E9E"/><circle cx="180" cy="110" r="2" fill="#9E9E9E"/><circle cx="170" cy="170" r="2" fill="#9E9E9E"/><circle cx="90" cy="180" r="2" fill="#9E9E9E"/></svg>