<svg xmlns="http://www.w3.org/2000/svg" viewBox="0 0 256 256" class="w-full h-full" width="256" height="256"><defs><linearGradient id="crystal-facet-27" x1="0%" y1="0%" x2="100%" y2="100%"><stop offset="0%" stop-color="#E8F5E8" stop-opacity="0.9"/><stop offset="50%" stop-color="#C8E6C9" stop-opacity="0.7"/><stop offset="100%" stop-color="#A5D6A7" stop-opacity="0.8"/></linearGradient><filter id="crystal-refraction-27"><feGaussianBlur stdDeviation="1"/><feColorMatrix values="1.2 0 0 0 0.1  0 1.2 0 0 0.1  0 0 1.2 0 0.1  0 0 0 0.9 0"/></filter></defs><circle cx="128" cy="128" r="110" fill="url(#crystal-facet-27)" stroke="#4CAF50" stroke-width="3"/><g transform="translate(128,128)"><path d="M0 -50 L35 -35 L50 0 L35 35 L0 50 L-35 35 L-50 0 L-35 -35 Z" fill="#E3F2FD" fill-opacity="0.7" stroke="#1976D2" stroke-width="2" filter="url(#crystal-refraction-27)"/><path d="M0 -35 L25 -25 L35 0 L25 25 L0 35 L-25 25 L-35 0 L-25 -25 Z" fill="#F3E5F5" fill-opacity="0.6" stroke="#7B1FA2" stroke-width="1.5"/><path d="M0 -20 L15 -15 L20 0 L15 15 L0 20 L-15 15 L-20 0 L-15 -15 Z" fill="#FFFFFF" fill-opacity="0.8" stroke="#9C27B0" stroke-width="1"/><line x1="0" y1="-50" x2="0" y2="50" stroke="#FFFFFF" stroke-width="2" opacity="0.6"/><line x1="-50" y1="0" x2="50" y2="0" stroke="#FFFFFF" stroke-width="2" opacity="0.6"/><line x1="-35" y1="-35" x2="35" y2="35" stroke="#FFFFFF" stroke-width="1.5" opacity="0.5"/><line x1="35" y1="-35" x2="-35" y2="35" stroke="#FFFFFF" stroke-width="1.5" opacity="0.5"/><circle cx="-20" cy="-20" r="4" fill="#81C784" opacity="0.7"/><circle cx="20" cy="-15" r="3" fill="#64B5F6" opacity="0.6"/><circle cx="15" cy="20" r="3" fill="#BA68C8" opacity="0.6"/><circle cx="-15" cy="18" r="2" fill="#FFB74D" opacity="0.7"/></g><circle cx="80" cy="80" r="2" fill="#FFFFFF" opacity="0.8"/><circle cx="176" cy="80" r="2" fill="#FFFFFF" opacity="0.8"/><circle cx="176" cy="176" r="2" fill="#FFFFFF" opacity="0.8"/><circle cx="80" cy="176" r="2" fill="#FFFFFF" opacity="0.8"/></svg>