<svg xmlns="http://www.w3.org/2000/svg" viewBox="0 0 256 256" class="w-full h-full" width="256" height="256"><defs><radialGradient id="deco-bg-19" cx="0.5" cy="0.5" r="0.6"><stop offset="0%" stop-color="#ECEFF1"/><stop offset="100%" stop-color="#B0BEC5"/></radialGradient></defs><circle cx="128" cy="128" r="110" fill="url(#deco-bg-19)" stroke="#37474F" stroke-width="3"/><g transform="translate(128,128)"><path d="M0 -30 L20 0 L0 30 L-20 0 Z" fill="#37474F" stroke="#263238" stroke-width="2"/><line x1="0" y1="-50" x2="0" y2="-35" stroke="#263238" stroke-width="3"/><line x1="35" y1="-35" x2="25" y2="-25" stroke="#263238" stroke-width="3" transform="rotate(45)"/><line x1="50" y1="0" x2="35" y2="0" stroke="#263238" stroke-width="3"/><line x1="35" y1="35" x2="25" y2="25" stroke="#263238" stroke-width="3" transform="rotate(-45)"/><line x1="0" y1="50" x2="0" y2="35" stroke="#263238" stroke-width="3"/><line x1="-35" y1="35" x2="-25" y2="25" stroke="#263238" stroke-width="3" transform="rotate(45)"/><line x1="-50" y1="0" x2="-35" y2="0" stroke="#263238" stroke-width="3"/><line x1="-35" y1="-35" x2="-25" y2="-25" stroke="#263238" stroke-width="3" transform="rotate(-45)"/><path d="M-40 -40 L-30 -50 L-50 -30 Z" fill="#546E7A"/><path d="M40 -40 L30 -50 L50 -30 Z" fill="#546E7A"/><path d="M40 40 L30 50 L50 30 Z" fill="#546E7A"/><path d="M-40 40 L-30 50 L-50 30 Z" fill="#546E7A"/><rect x="-15" y="-15" width="30" height="5" fill="#78909C"/><rect x="-10" y="-10" width="20" height="5" fill="#78909C"/><rect x="-5" y="-5" width="10" height="5" fill="#78909C"/><rect x="-15" y="10" width="30" height="5" fill="#78909C"/><rect x="-10" y="5" width="20" height="5" fill="#78909C"/><rect x="-5" y="0" width="10" height="5" fill="#78909C"/></g><circle cx="128" cy="128" r="85" fill="none" stroke="#37474F" stroke-width="2"/><circle cx="128" cy="128" r="95" fill="none" stroke="#37474F" stroke-width="1"/></svg>