<svg xmlns="http://www.w3.org/2000/svg" viewBox="0 0 256 256" class="w-full h-full" width="256" height="256"><defs><radialGradient id="wood-bg-10" cx="0.3" cy="0.3" r="0.8"><stop offset="0%" stop-color="#EFEBE9"/><stop offset="50%" stop-color="#D7CCC8"/><stop offset="100%" stop-color="#A1887F"/></radialGradient></defs><circle cx="128" cy="128" r="110" fill="url(#wood-bg-10)" stroke="#6D4C41" stroke-width="3"/><path d="M60 100 Q80 105 100 100 Q120 95 140 100 Q160 105 180 100 Q200 95 220 100" stroke="#8D6E63" stroke-width="2" fill="none" opacity="0.6"/><path d="M50 130 Q70 135 90 130 Q110 125 130 130 Q150 135 170 130 Q190 125 210 130" stroke="#8D6E63" stroke-width="2" fill="none" opacity="0.5"/><path d="M65 160 Q85 165 105 160 Q125 155 145 160 Q165 165 185 160 Q205 155 225 160" stroke="#8D6E63" stroke-width="2" fill="none" opacity="0.6"/><ellipse cx="105" cy="110" rx="8" ry="12" fill="#795548" opacity="0.7"/><ellipse cx="151" cy="145" rx="6" ry="10" fill="#795548" opacity="0.6"/><circle cx="128" cy="128" r="25" fill="none" stroke="#5D4037" stroke-width="3"/><path d="M113 118 Q128 105 143 118 Q138 133 128 138 Q118 133 113 118" fill="none" stroke="#5D4037" stroke-width="2"/><path d="M90 85 Q110 90 130 85 Q150 80 170 85" stroke="#A1887F" stroke-width="1" opacity="0.4"/><path d="M85 115 Q105 120 125 115 Q145 110 165 115 Q185 120 205 115" stroke="#A1887F" stroke-width="1" opacity="0.4"/><path d="M90 175 Q110 180 130 175 Q150 170 170 175" stroke="#A1887F" stroke-width="1" opacity="0.4"/><path d="M128 115 L131 123 L139 123 L133 128 L135 136 L128 131 L121 136 L123 128 L117 123 L125 123 Z" fill="#5D4037"/></svg>