<svg xmlns="http://www.w3.org/2000/svg" viewBox="0 0 256 256" class="w-full h-full" width="256" height="256"><defs><radialGradient id="ceramic-bg-13" cx="0.5" cy="0.5" r="0.6"><stop offset="0%" stop-color="#FFFFFF"/><stop offset="100%" stop-color="#F5F5F5"/></radialGradient></defs><circle cx="128" cy="128" r="110" fill="url(#ceramic-bg-13)" stroke="#E0E0E0" stroke-width="3"/><ellipse cx="128" cy="105" rx="8" ry="18" fill="#F8BBD9" stroke="#E91E63" stroke-width="1"/><ellipse cx="128" cy="105" rx="8" ry="18" fill="#F8BBD9" stroke="#E91E63" stroke-width="1" transform="rotate(60 128 128)"/><ellipse cx="128" cy="105" rx="8" ry="18" fill="#F8BBD9" stroke="#E91E63" stroke-width="1" transform="rotate(120 128 128)"/><ellipse cx="128" cy="105" rx="8" ry="18" fill="#F8BBD9" stroke="#E91E63" stroke-width="1" transform="rotate(180 128 128)"/><ellipse cx="128" cy="105" rx="8" ry="18" fill="#F8BBD9" stroke="#E91E63" stroke-width="1" transform="rotate(240 128 128)"/><ellipse cx="128" cy="105" rx="8" ry="18" fill="#F8BBD9" stroke="#E91E63" stroke-width="1" transform="rotate(300 128 128)"/><circle cx="128" cy="128" r="12" fill="#FFEB3B" stroke="#FFC107" stroke-width="1"/><circle cx="128" cy="128" r="6" fill="#FF9800"/><circle cx="80" cy="80" r="3" fill="#E1BEE7" opacity="0.6"/><circle cx="176" cy="80" r="3" fill="#E1BEE7" opacity="0.6"/><circle cx="80" cy="176" r="3" fill="#E1BEE7" opacity="0.6"/><circle cx="176" cy="176" r="3" fill="#E1BEE7" opacity="0.6"/><circle cx="128" cy="128" r="85" fill="none" stroke="#F5F5F5" stroke-width="1" opacity="0.5"/><circle cx="128" cy="128" r="70" fill="none" stroke="#F5F5F5" stroke-width="1" opacity="0.3"/></svg>